<svg width="867" height="463" xmlns="http://www.w3.org/2000/svg" version="1.1" class="icon">

 <g>
  <title>Layer 1</title>
  <path id="svg_1" fill="#009A61" d="m175.02425,308.32318c20.5091,-17.7124 30.76365,-40.86163 30.76365,-69.45076c0,-22.99267 -6.75893,-41.67722 -20.27579,-56.04955c-13.51685,-14.36927 -31.54239,-22.87499 -54.06843,-25.51921l0,-0.93224c18.02145,-5.90345 32.16149,-15.84794 42.41605,-29.83039c10.25455,-13.98348 15.38233,-30.45053 15.38233,-49.4083c0,-22.6826 -8.4699,-41.09393 -25.40357,-55.23397c-16.93674,-14.13595 -39.85266,-21.20802 -68.75083,-21.20802l-95.08766,0l0,334.20054l97.41671,0c31.22926,0 57.09844,-8.85569 77.60754,-26.5681zm-135.87153,-272.20865l44.98045,0c42.72508,0 64.08967,16.23782 64.08967,48.70835c0,18.8012 -6.13984,33.36694 -18.41133,43.69824c-12.27558,10.33437 -29.13148,15.499 -50.57282,15.499l-40.08597,0l0,-107.90559zm0,143.09607l44.98045,0c53.7553,0 80.63653,19.73343 80.63653,59.19621c0,18.95675 -6.33222,33.87348 -18.99461,44.74714c-12.66444,10.87672 -30.4935,16.31354 -53.48617,16.31354l-53.1362,0l0,-120.25689zm229.32701,-179.21059l38.22049,0l0,334.89127l-38.22049,0l0,-334.89128l0,0.00001zm301.92138,300.99221c21.51809,-22.91592 32.27815,-53.40533 32.27815,-91.47436c0,-38.83959 -9.9844,-69.21746 -29.94706,-91.1244c-19.96675,-21.90694 -47.7403,-32.86041 -83.31759,-32.86041c-37.28825,0 -66.88636,11.2666 -88.7933,33.79264c-21.90694,22.53014 -32.86041,53.83512 -32.86041,93.92109c0,36.82265 10.52368,66.38495 31.57821,88.67767c21.05145,22.29682 49.21182,33.4437 84.48313,33.4437c36.19946,0 65.05874,-11.45694 86.57887,-34.37593zm-163.48749,-89.14327c0,-29.3648 7.1437,-52.39737 21.44031,-69.1008c14.29354,-16.70036 33.71282,-25.05361 58.26399,-25.05361c24.70465,0 43.69824,8.08003 56.9828,24.23803c13.28354,16.16108 19.92684,39.15272 19.92684,68.98414c0,29.52137 -6.64228,52.28379 -19.92684,68.28523c-13.28354,16.00451 -32.27814,24.00471 -56.9828,24.00471c-24.23803,0 -43.58057,-8.15779 -58.03067,-24.47134c-14.44909,-16.31252 -21.67363,-38.6073 -21.67363,-66.88636zm460.51644,98.81556l0,-219.53806l-38.22151,0l0,33.09372l-0.93121,0c-15.5389,-25.78937 -39.38603,-38.68712 -71.54854,-38.68712c-33.87348,0 -60.55824,11.96552 -80.05325,35.89042c-19.50114,23.92797 -29.24916,56.16621 -29.24916,96.71779c0,35.73794 9.05012,64.20632 27.15139,85.41536c18.09819,21.20803 41.98523,31.81152 71.66418,31.81152c36.50951,0 63.85635,-15.22475 82.03538,-45.67936l0.93121,0l0,26.10249c0,24.48056 -4.53222,44.14032 -13.55369,59.02635l-19.32309,20.44157c-0.27629,0.18726 -0.54645,0.37964 -0.82581,0.56282c-6.04467,3.73404 -48.82398,27.69987 -110.05863,-0.4738c-66.17311,-30.44642 -160.31728,-32.94022 -183.51257,46.75998l27.28851,21.03099c0,0 0,-37.52054 42.29632,-52.52938c31.41857,-11.14892 65.62258,2.94303 92.68595,14.55756l0,0.16066c7.76792,3.93973 16.00861,7.16928 24.70159,9.72141c0.14327,0.04604 0.28857,0.09414 0.43081,0.13917c1.21569,0.38169 2.52552,0.73678 3.90903,1.06628c14.81645,3.89163 30.92125,5.85434 48.33178,5.85434c83.9019,-0.00205 125.85131,-43.81593 125.85131,-131.44471zm-58.38064,-30.29703c-13.4401,15.22885 -30.87929,22.83917 -52.32062,22.83917c-21.13128,0 -38.10383,-7.96029 -50.92279,-23.88908c-12.81691,-15.92469 -19.2269,-37.1716 -19.2269,-63.74072c0,-30.91613 6.6781,-54.96075 20.04248,-72.12978c13.3613,-17.16596 31.84835,-25.75253 55.46729,-25.75253c19.11126,0 35.07484,6.75792 47.89277,20.27579c12.81794,13.51685 19.2269,29.75468 19.2269,48.70835l0,35.1915c0,23.77141 -6.72107,43.27255 -20.15913,58.4973z"/>
 </g>
</svg>
